<svg xmlns="http://www.w3.org/2000/svg" xml:space="preserve" width="150" height="150" version="1.1" style="shape-rendering:geometricPrecision; text-rendering:geometricPrecision; image-rendering:optimizeQuality; fill-rule:evenodd; clip-rule:evenodd"
viewBox="0 0 3015.4 4025.17"
 xmlns:xlink="http://www.w3.org/1999/xlink">
 <defs>
  <style type="text/css">
   <![CDATA[
    .fil4 {fill:none}
    .fil5 {fill:#FEFEFE}
    .fil0 {fill:#2B2A29}
    .fil1 {fill:#2B2A29}
    .fil2 {fill:#00A6C8}
    .fil3 {fill:url(#id1)}
   ]]>
  </style>
    <clipPath id="id0">
     <path d="M1507.7 0c832.68,0 1507.7,675.02 1507.7,1507.7 0,832.68 -675.02,1507.7 -1507.7,1507.7 -832.68,0 -1507.7,-675.02 -1507.7,-1507.7 0,-832.68 675.02,-1507.7 1507.7,-1507.7z"/>
    </clipPath>
  <linearGradient id="id1" gradientUnits="userSpaceOnUse" x1="-220.37" y1="1507.7" x2="3235.76" y2="1507.7">
   <stop offset="0" style="stop-opacity:1; stop-color:#9F29B1"/>
   <stop offset="1" style="stop-opacity:1; stop-color:#00B0CB"/>
  </linearGradient>
 </defs>
 <g id="Layer_x0020_1">
 <g id="_2484679714592">
   <g>
   </g>
   <g style="clip-path:url(#id0)">
    <g id="_2484679717536">
     <circle class="fil3" cx="1507.7" cy="1507.7" r="1728.07"/>
    </g>
   </g>
   <path class="fil4" d="M1507.7 0c832.68,0 1507.7,675.02 1507.7,1507.7 0,832.68 -675.02,1507.7 -1507.7,1507.7 -832.68,0 -1507.7,-675.02 -1507.7,-1507.7 0,-832.68 675.02,-1507.7 1507.7,-1507.7z"/>
   <g>
    <path class="fil5" d="M1504.76 204.57c23.99,0 43.43,19.44 43.43,43.43 0,23.98 -19.44,43.43 -43.43,43.43 -23.99,0 -43.43,-19.44 -43.43,-43.43 0,-23.99 19.44,-43.43 43.43,-43.43zm1260.25 1259.84c23.98,0 43.43,19.44 43.43,43.43 0,23.98 -19.44,43.43 -43.43,43.43 -23.99,0 -43.43,-19.44 -43.43,-43.43 0,-23.99 19.44,-43.43 43.43,-43.43zm-338.45 -878.02l0 0 0.06 0.06 0.72 0.74 0 0 0.02 0.02 0.66 0.72 0.02 0.03 0.02 0.02 0.02 0.02 0 0 0.23 0.26 0.5 0.57 0 0 0.71 0.85 0 0 0.68 0.86 0 0 0.02 0.02c0.41,0.53 0.8,1.07 1.19,1.62l0.02 0.03 0.02 0.03 0.02 0.03 0.02 0.02 0 0 0 0 0.61 0.9 0 0 0.58 0.91 0.02 0.03 0.47 0.78 0.02 0.03 0.02 0.03 0.02 0.03 0.02 0.03 0.54 0.93 0.51 0.94 0 0 0.48 0.95 0.46 0.96 0 0c0.43,0.92 0.82,1.86 1.18,2.8l0.02 0.06 0.02 0.06 0.32 0.86 0.02 0.06 0.02 0.06 0 0 0.33 1 0 0 0.31 1.01 0 0 0.29 1.01 0 0 0.01 0.03 0.01 0.03 0.01 0.03 0.01 0.03 0.01 0.03 0.2 0.76 0.01 0.03 0.01 0.03 0.01 0.03 0 0 0.23 1.02 0.21 1.03 0 0 0.18 1.03 0 0 0.16 1.03 0 0 0 0.03 0 0.03 0.01 0.04 0 0.03 0.02 0.13 0 0.03 0.1 0.74 0 0.03 0 0.03 0.09 0.84 0 0.03 0 0.03 0 0.04 0 0.03 0.09 1.04 0 0 0.06 1.04 0.04 1.04 0 0 0.01 1.04 -0.01 1.04 -0.04 1.04 -0.06 1.04 -0.09 1.04 -0.11 1.04 -0 0 -0.14 1.03 0 0 -0.16 1.03 -0.18 1.03 -0.21 1.03 -0.23 1.02 -0.26 1.01 -0.29 1.01 -0.31 1.01 -0.33 1 -0.36 0.99 -0.39 0.99 -0.41 0.98 -0.43 0.96 -0.46 0.96 -0.48 0.95 -0.51 0.94 -0.54 0.93 -0.56 0.92 -0.58 0.91 -0.61 0.9 -0.64 0.89 -0.66 0.87 -0.68 0.86 -0.71 0.84 -0.73 0.84 -0.76 0.82 -0.02 0.02 -0.02 0.03 -0.02 0.02 -0.61 0.63 -0.02 0.02 -0.03 0.02 -0.02 0.02 -0.03 0.03c-16.96,16.95 -44.45,16.95 -61.41,0l-0.78 -0.8 -0.76 -0.82 -0.74 -0.84 -0.71 -0.84 -0.68 -0.86 -0.66 -0.87 -0.64 -0.89 -0.61 -0.9 -0.59 -0.91 -0.56 -0.92 -0.53 -0.93 -0.51 -0.94 -0.49 -0.95 -0.46 -0.96 -0.43 -0.96 -0.41 -0.98 -0.39 -0.99 -0.36 -0.99 -0.33 -1 -0.31 -1.01c-0.1,-0.33 -0.2,-0.67 -0.29,-1.01l-0.26 -1.01 -0.23 -1.02 -0.21 -1.03 -0.19 -1.03 -0.16 -1.03 -0.14 -1.03 -0.11 -1.04 -0.09 -1.04 -0.06 -1.04c-0.02,-0.35 -0.03,-0.69 -0.04,-1.04l-0.02 -1.04 0.02 -1.04 0 0 0.04 -1.04 0.06 -1.04 0 0 0.09 -1.04 0.11 -1.04 0 -0 0.14 -1.03 0 -0 0.16 -1.03 0 -0 0.19 -1.03 0 0 0.21 -1.03 0.23 -1.02 0 -0 0.26 -1.01 0 -0 0.29 -1.01 0.31 -1.01 0 0 0.33 -1 0 -0 0.36 -0.99 0 0 0.38 -0.98 0 -0 0.41 -0.97 0 -0 0.43 -0.96 0.46 -0.96 0.49 -0.95 0 -0 0.51 -0.94 0.53 -0.93 0.56 -0.92 0 -0 0.58 -0.9 0.61 -0.9 0.64 -0.88 0 -0 0.66 -0.87 0.68 -0.86 0.71 -0.85 0.73 -0.83 0.76 -0.82 0.78 -0.8 0.8 -0.78 0.82 -0.76 0.83 -0.73 0.84 -0.71 0.86 -0.68 0.87 -0.66 0.88 -0.64 0.9 -0.61 0.91 -0.58 0.92 -0.56 0.03 -0.02 0.03 -0.02 0.03 -0.02 0.03 -0.02 0.03 -0.02 0.03 -0.02 0.64 -0.37 0.03 -0.02 0.03 -0.02 0.03 -0.02 0.03 -0.02 0.94 -0.51 0.95 -0.49 0.96 -0.46 0.96 -0.44 0.98 -0.41 0.99 -0.38 0.99 -0.36 1 -0.34 1.01 -0.31 1.01 -0.29 1.01 -0.26 1.02 -0.24 1.02 -0.21 1.03 -0.19 1.03 -0.16 1.04 -0.14 1.03 -0.11 1.04 -0.08 1.04 -0.06c0.35,-0.02 0.7,-0.03 1.04,-0.04l1.05 -0.01 1.04 0.01 0 0 1.04 0.04 1.04 0.06 1.04 0.08 1.04 0.11 0 0 1.03 0.14 0 0 1.03 0.16 0 0 1.03 0.19 0 0c0.34,0.06 0.68,0.13 1.03,0.21l0.03 0.01 0.03 0.01 0.03 0 0.03 0.01 0.8 0.18 0.03 0.01 0.03 0.01 0.03 0.01 0 0 1.01 0.26 0 0 1.01 0.29 1 0.31 0 0 1 0.34 0 0 0.99 0.36 0 0 0.98 0.38 0 0 0.98 0.41 0 0 0.97 0.44 0.96 0.46 0.95 0.49 0 0 0.94 0.51 0.93 0.53 0.92 0.56 0 0 0.91 0.58c0.3,0.2 0.6,0.4 0.9,0.61l0 0 0.88 0.64 0 0 0.87 0.66 0.86 0.68 0 0 0.84 0.71 0.83 0.73 0 0 0.82 0.76 0 0 0.8 0.78zm0 0l0.78 0.8 -0.78 -0.8zm0.8 0.83l0.03 0.03 0.02 0.02 0.02 0.02 0.03 0.03 0.02 0.02 0.35 0.38 0.02 0.02 0.02 0.03 0.02 0.02 0.02 0.02 0.02 0.03 0.02 0.02 0.02 0.02 0.02 0.03 -0.66 -0.72zm0.74 0.79l0.73 0.83 -0.73 -0.83zm2.15 2.57l0.02 0.03 0.04 0.05 0.02 0.03 0.02 0.03 0.06 0.08 0.02 0.03 0.25 0.33 0.02 0.02 0.04 0.06 0.02 0.02 0.02 0.03 0.02 0.03 0.02 0.03 0.02 0.03 0.02 0.03 0.02 0.02 0 0 0.02 0.02 0.02 0.03 0.02 0.03 0.02 0.03 0.02 0.02 0.02 0.03 0.02 0.03 0.04 0.06 0.02 0.03 0.04 0.06 0.02 0.02 0.04 0.06 0.02 0.03 0.04 0.06 0.02 0.03 0.06 0.08 0.02 0.03 0.04 0.06 0.02 0.03 0.02 0.03 0.02 0.03 -1.19 -1.62zm1.88 2.63l0.02 0.03 0.02 0.03 0.02 0.03 0.02 0.03 0.02 0.03 0.02 0.03 0.02 0.03 0.02 0.03 0.02 0.03 0.13 0.2 0.02 0.03 0.06 0.08 0.02 0.03 0.02 0.03 0.04 0.06 0.02 0.03 0.02 0.03 0.02 0.03 0.02 0.02 0.02 0.03 0.02 0.03 0.02 0.03 0.02 0.02 0 0 -0.58 -0.91zm0.6 0.94l0.02 0.03 0.02 0.03 0.02 0.02 0.02 0.03 0.02 0.03 0.02 0.03 0.02 0.03 0.02 0.03 0.25 0.4 0.02 0.03 0.07 0.12 -0.47 -0.78zm2.53 4.67l0.03 0.06 0.03 0.06 0.02 0.06 0.03 0.06 0.03 0.06 0.14 0.3 0.03 0.06 0.05 0.12 0.03 0.06 0.02 0.06 0.03 0.06 0 0 0.02 0.06 0.03 0.06 0.03 0.06 0.02 0.06 0.02 0.06 0.03 0.06 0.02 0.06 0.02 0.06 0.03 0.06 0.02 0.06 0.02 0.06 0.03 0.06 0.02 0.06 0.02 0.06 0.03 0.06 0.02 0.06 0 0 0.02 0.06 0.02 0.06 0.02 0.06 0.02 0.06 0.02 0.06 0.02 0.06 0.02 0.06 0.02 0.06 0.02 0.06 0.02 0.06 0.02 0.06 0.02 0.06 0.02 0.06 0.02 0.06 -1.18 -2.8zm1.23 2.93l0 0 0.02 0.06 0.02 0.06 0.02 0.06 0.02 0.06 0.02 0.06 0.02 0.06 0.16 0.43 0.02 0.06 -0.32 -0.86zm2.37 9.26l0 0.03 0 0.03 0 0.03 0 0.03 -0.02 -0.13zm0.02 0.16l0 0.03 0.06 0.48 0 0.03 0 0.04 0 0.03 0.01 0.03 0 0.03 0 0.04 0 0.03 0 0 -0.1 -0.74zm0.1 0.81l0 0.03 0 0.03 0 0.03 0 0.03 0 0.03 0 0.03 0 0.03 0 0.03 0.04 0.42 0 0.03 0.01 0.13 -0.09 -0.84zm-33.68 -37.26c0.27,0.06 0.53,0.12 0.8,0.18l-0.8 -0.18zm21.26 1855.29l0 0 -0.8 0.78 0 0 -0.03 0.02 -0.71 0.66 -0.03 0.02 -0.02 0.02 -0.03 0.02 0 0 -0.83 0.73 0 0 -0.6 0.5 -0.25 0.21 0 0 -0.86 0.68 0 0 -0.03 0.02c-0.53,0.41 -1.07,0.81 -1.62,1.19l-0.03 0.02 -0.03 0.02 -0.03 0.02 -0.02 0.02 -0.01 0 0 0 -0.9 0.6 0 0 -0.29 0.18 -0.62 0.41 -0.03 0.02 -0.78 0.47 -0.02 0.02 -0.03 0.02 -0.03 0.02 -0.03 0.02 -0.93 0.53 -0.94 0.51 0 0 -0.95 0.49 -0.96 0.46 0 0c-0.92,0.43 -1.86,0.82 -2.81,1.18l-0.06 0.02 -0.06 0.02 -0.87 0.31 -0.06 0.02 -0.06 0.02 0 0 -1 0.33 -0 0 -1 0.31 0 0 -1.01 0.28 0 0 -0.03 0.01 -0.03 0.01 -0.03 0.01 -0.03 0.01 -0.03 0.01 -0.76 0.2 -0.03 0.01 -0.03 0 -0.03 0.01 -0 0 -1.02 0.24 -1.03 0.21 -0 0 -1.03 0.19 0 0 -1.03 0.16 -0 0 -0.03 0 -0.03 0 -0.03 0.01 -0.03 0 -0.13 0.02 -0.03 0 -0.74 0.1 -0.03 0 -0.03 0 -0.84 0.09 -0.03 0 -0.03 0 -0.03 0 -0.03 0 -1.04 0.08 -0 0 -1.04 0.06 -1.04 0.04 -0 0 -1.04 0.01 -1.05 -0.01 -1.04 -0.04 -1.04 -0.06 -1.04 -0.08 -1.03 -0.11 -0 0 -1.03 -0.14 0 0 -1.03 -0.16 -1.03 -0.19 -1.02 -0.21 -1.02 -0.24 -1.02 -0.26 -1.01 -0.28 -1.01 -0.31 -1 -0.33 -0.99 -0.36 -0.99 -0.38 -0.98 -0.41 -0.96 -0.44 -0.96 -0.46 -0.95 -0.49 -0.94 -0.51 -0.93 -0.53 -0.92 -0.56 -0.9 -0.58 -0.9 -0.61 -0.88 -0.64 -0.87 -0.66 -0.86 -0.68 -0.84 -0.71 -0.83 -0.73 -0.82 -0.76 -0.03 -0.02 -0.02 -0.02 -0.02 -0.02 -0.63 -0.61 -0.03 -0.03 -0.02 -0.02 -0.02 -0.02 -0.02 -0.02c-16.96,-16.96 -16.96,-44.45 0,-61.41l0.8 -0.78 0.82 -0.76 0.83 -0.74 0.84 -0.71 0.86 -0.68 0.87 -0.66 0.88 -0.64 0.9 -0.61 0.9 -0.59 0.92 -0.56 0.03 -0.02 0.03 -0.02 0.03 -0.02 0.03 -0.02 0.03 -0.02 0.03 -0.02 0.64 -0.37 0.03 -0.02 0.03 -0.02 0.03 -0.01 0.03 -0.02 0.94 -0.51 0.95 -0.48 0.96 -0.46 0.96 -0.43 0.98 -0.41 0.99 -0.39 0.99 -0.36 1 -0.34 1.01 -0.31 1.01 -0.29 1.02 -0.26 1.02 -0.24 1.02 -0.21 1.03 -0.18 1.03 -0.16 1.03 -0.14 1.04 -0.11 1.04 -0.09 1.04 -0.06c0.35,-0.02 0.7,-0.03 1.04,-0.04l1.05 -0.01 1.04 0.01 0 0 1.04 0.04 1.04 0.06 0 0 1.04 0.09 1.04 0.11 0 0 1.03 0.14 0 0 1.03 0.16 0 0 1.03 0.18 0 0 1.03 0.21 0.03 0.01 0.03 0.01 0.03 0.01 0.03 0 0.8 0.18 0.03 0.01 0.03 0.01 0.03 0.01 0 0 1.01 0.26 0 0 1.01 0.29 1 0.31 0 0 1 0.34 0 0 0.99 0.36 0 0 0.98 0.39 0 0 0.98 0.41 0 0 0.97 0.43 0.96 0.46 0.95 0.48 0 0 0.94 0.51 0.93 0.53 0.92 0.56 0 0 0.91 0.59 0.9 0.61 0.88 0.64 0 0 0.87 0.66 0.86 0.68 0.84 0.71 0.83 0.74 0.82 0.76 0.8 0.78 0.78 0.8 0.76 0.82 0.73 0.83 0.71 0.84 0.68 0.86 0.66 0.87 0.64 0.89 0.61 0.9 0.58 0.91 0.56 0.92 0.02 0.03 0.02 0.03 0.02 0.03 0.02 0.02 0.02 0.03 0.02 0.03 0.37 0.64 0.02 0.03 0.02 0.03 0.01 0.03 0.02 0.03 0.51 0.94 0.48 0.95 0.46 0.96 0.43 0.97 0.41 0.98 0.39 0.99 0.36 0.99 0.33 1 0.31 1.01 0.29 1.01 0.26 1.02 0.23 1.02 0.21 1.03 0.18 1.03 0.16 1.03 0.14 1.04 0.11 1.04 0.09 1.04 0.06 1.04c0.02,0.35 0.03,0.69 0.04,1.04l0.01 1.04 -0.01 1.04 0 0 -0.04 1.04 -0.06 1.04 -0.09 1.04 -0.11 1.03 0 0 -0.14 1.03 0 0 -0.16 1.03 0 0 -0.18 1.03 0 0c-0.07,0.34 -0.14,0.68 -0.21,1.02l-0.23 1.02 0 0 -0.26 1.01 0 0 -0.29 1.01 -0.31 1 0 0 -0.33 1 0 0 -0.36 0.99 0 0 -0.39 0.98 0 0 -0.41 0.97 0 0 -0.43 0.96 -0.46 0.96 -0.48 0.95 0 0 -0.51 0.94 -0.54 0.93 -0.56 0.92 0 0 -0.58 0.9c-0.2,0.3 -0.4,0.6 -0.61,0.9l0 0 -0.64 0.88 0 0 -0.66 0.87 -0.68 0.86 0 0 -0.71 0.84 -0.73 0.83 0 0 -0.76 0.82 0 0 -0.02 0.02 -0.76 0.78zm-934.72 296.93l1.03 -0.31 0.03 -0.01 1.01 -0.27 0.03 -0.01 0.03 -0.01 0.03 -0.01 0.75 -0.18 0.03 -0.01 0.07 -0.02 0.03 -0.01 0.06 -0.02 0 0 1.06 -0.23 1.06 -0.21 1.08 -0.18 1.08 -0.15 0 0 1.09 -0.12 0 0 1.1 -0.1 1.11 -0.07 1.11 -0.04 0.02 0 0.02 0 0 0 0 0 0.01 0 0.02 0 0.02 0 0.02 0 0.02 0 0.02 0 0.04 -0 0.02 0 0.02 0 0.02 0 0.74 -0.01 0.02 0 0.02 0 0.02 0 0.02 0 0.02 0 0.02 0 0.02 0 0.02 0 0.02 0 1.12 0.02 1.11 0.04 1.11 0.07 0 0 0.02 0 0.02 0 0.03 0 0.04 0 0.04 0 0 0 0.96 0.08 0 0 0.01 0 1.08 0.12 1.08 0.15 0 0 0.01 0 1.07 0.18 1.06 0.21 1.06 0.23 0 0 1.05 0.25 0 0 1.03 0.27 0 0 0 0 1.03 0.31 0 0 1.01 0.33 1 0.35 0 0 0 0 0.99 0.37 0.98 0.4 0.97 0.42 0.95 0.45 0.94 0.47 0.93 0.49 0.92 0.51 0.9 0.53 0.89 0.55 0.87 0.57 0 0 0.86 0.6 0 0 0 0 0.84 0.62 0.83 0.64 0.81 0.66 0.8 0.67 0 0 0.78 0.69 0 0 0.76 0.71 0.74 0.73 0.73 0.74 0 0 0.71 0.76 0.69 0.78 0 0 0.67 0.8 0 0 0.66 0.81 0 0 0.63 0.83 0 0 0.62 0.84 0.6 0.86 0.57 0.88 0 0 0.55 0.89 0 0 0.53 0.9 0.51 0.92 0.49 0.93 0.47 0.94 0.45 0.96 0.42 0.96 0.4 0.98 0.37 0.99 0.35 1 0.33 1.01 0.31 1.03 0.28 1.03 0 0 0.25 1.05 0 0 0.23 1.06 0.21 1.06 0.18 1.08 0 0 0.01 0.07 0 0.03 0 0.03 0 0.03 0 0.04 0.01 0.03 0 0.04 0.01 0.07 0 0.03 0.08 0.57 0 0.04 0 0.03 0 0.04 0 0.03 0.12 1.09 0 0 0.1 1.1 0 0 0.07 1.11 0 0 0.04 1.11 0 0 0.02 1.12 0 0 0 0 0 0.16 -0.02 0.93 0 0.02 0 0.02 0 0 -0.04 1.11 -0 0 -0.07 1.11 0 0 -0.1 1.1 0 0 -0.12 1.09 -0.15 1.08 -0 0 -0.18 1.08 -0.21 1.06 -0.23 1.06 0 0 -0.25 1.05 -0 0 -0.28 1.04 0 0 -0.31 1.03 -0.33 1.01 -0.35 1.01 -0 0 -0.01 0.03 -0.01 0.03 -0.01 0.03 -0.01 0.03 -0.01 0.03 -0.01 0.03 -0.01 0.03 -0.01 0.03 -0.23 0.62 -0.01 0.03 -0.01 0.03 -0.01 0.03 -0.01 0.03 -0.4 0.98 0 0 -0.42 0.97 -0.45 0.95 -0.47 0.94 -0.49 0.93 -0.51 0.92 -0.53 0.9 -0.55 0.89 -0.57 0.88 -0.6 0.86 0 0 -0.62 0.84 -0.64 0.83 -0.66 0.81 -0.67 0.8 -0.69 0.78 -0.71 0.76 -0.73 0.74 -0.74 0.73 0 0 -0.76 0.71 -0.78 0.69 0 0 -0.8 0.67 0 0 -0.81 0.66 0 0 -0.83 0.64 0 0 -0.84 0.62 -0.86 0.6 -0.87 0.57 -0 0 -0.89 0.55 0 0 -0.9 0.53 -0.92 0.51 -0.93 0.49 -0.94 0.47 0 0 -0.95 0.44 0 0 -0.97 0.42 0 0 -0.98 0.4 0 0 -0.99 0.37 -1 0.35 0 0 -1.01 0.33 0 0 -1.03 0.31 -1.03 0.28 0 0 -1.04 0.25 -0 0 0 0 -1.05 0.23 -0 0 -1.06 0.2 0 0 -1.07 0.18 -0 0 -0.03 0 -0.04 0.01 -0.03 0 -0.06 0.01 -0.04 0c-0.29,0.05 -0.58,0.09 -0.88,0.12l-0 0 -1.09 0.12 -1.1 0.1 0 0 -0 0 -1.1 0.07 -0 0 -1.11 0.04 -0 0 -14.04 -84.89zm-908.89 -296.92l0 0 -0.78 -0.8 -0 0 -0.02 -0.02 -0.66 -0.72 -0.02 -0.02 -0.02 -0.03 -0.02 -0.02 0 0 -0.73 -0.83 -0 0 -0.7 -0.84 -0 0 -0.68 -0.86 -0 0 -0.68 -0.9 -0.03 -0.04 -0.45 -0.62 -0.03 -0.04 -0.03 -0.04 -0.03 -0.04 -0.05 -0.07 -0.09 -0.14 -0.43 -0.63 -0.03 -0.04 -0.03 -0.04 -0.03 -0.04 -0.59 -0.91 -0.02 -0.03 -0.02 -0.03 -0.02 -0.03 -0.43 -0.72 -0.02 -0.03 -0.02 -0.03 -0.02 -0.03 -0.02 -0.03 0 0 -0.53 -0.93 -0 0 -0.51 -0.94 0 -0 -0.48 -0.95 0 0 -0.46 -0.96c-0.43,-0.92 -0.82,-1.86 -1.19,-2.8l-0.02 -0.06 -0.02 -0.06 -0.32 -0.86 -0.02 -0.06 -0.02 -0.06 0 -0 -0.33 -1 0 0 -0.27 -0.86 -0.02 -0.08 -0.02 -0.06 -0.02 -0.09c-0.18,-0.6 -0.34,-1.21 -0.49,-1.82l-0.02 -0.08c-0.16,-0.69 -0.32,-1.38 -0.45,-2.08 -0.12,-0.64 -0.23,-1.29 -0.33,-1.93l-0.01 -0.06 -0.01 -0.06 -0.01 -0.06 -0.01 -0.06 -0.01 -0.06 -0.01 -0.06 -0.01 -0.07 -0.05 -0.39 -0.01 -0.06 -0.01 -0.06 -0.01 -0.06 -0.01 -0.06 -0.01 -0.07 -0.04 -0.32 -0.01 -0.06 -0.01 -0.13 -0.01 -0.06 -0.02 -0.2 -0.01 -0.06 -0.01 -0.06 -0 -0.06 -0.01 -0.06 0 0 -0 -0.03c-0.06,-0.63 -0.1,-1.26 -0.14,-1.89l-0 -0.03 0 -0.03 -0 -0.03 0 -0.04 0 -0.03 0 0 -0 -0.03 0 -0.03 0 -0.03 -0 -0.03 0 -0.04 0 -0.03 -0 -0.06 -0.02 -0.72 0 -0.03 0 -0.03 -0 -0.06 -0.01 -0.98 0.01 -1.04 0 0 0.04 -1.04 0 -0 0.06 -1.04 0 0 0 -0 0.08 -1.04 0 0 0.11 -1.04 0 0 0.14 -1.03 0 -0 0.16 -1.03 0 0 0.18 -1.03 0 -0 0.21 -1.03 0 0 0.23 -1.02 0 0 0.26 -1.02 0 0 0.28 -1.01 0 0 0.31 -1 0 -0 0.33 -1 0.36 -0.99 -0 0 0 0 0.38 -0.99 0 0 0.41 -0.98 0 0 0.43 -0.97 0 0 0.46 -0.96 0.48 -0.95 0.51 -0.94 0 0 0.53 -0.93 0 0 0.55 -0.92 0 0 0.58 -0.91 0.61 -0.9 0 0 0.64 -0.88 0.66 -0.87 0.68 -0.86 0 0 0.7 -0.84 0.74 -0.83 0.76 -0.82 0.02 -0.02 0.02 -0.02 0.02 -0.03 0.61 -0.63 0.02 -0.02 0.03 -0.02 0.02 -0.02 0.03 -0.02 0.8 -0.78 0.82 -0.76 0.83 -0.74 0 0 0.84 -0.7 0 -0 0.86 -0.68 0.88 -0.66 0.88 -0.64 0 0 0.9 -0.61 0.91 -0.59 0.92 -0.56 0.93 -0.53 0.94 -0.51 0.95 -0.48 0.96 -0.46 0 0 0.97 -0.43 0 0 0.98 -0.41 0 0 0.98 -0.39 0.99 -0.36 1 -0.34 1 -0.31 0 0 1.01 -0.29 1.01 -0.26 1.02 -0.24 1.03 -0.21 1.03 -0.18 1.03 -0.16 1.04 -0.14 0 -0 1.03 -0.11 1.04 -0.09 1.04 -0.06 1.04 -0.04 1.04 -0.01 1.04 0.01 1.04 0.04 0 0 1.04 0.06 1.04 0.09 0 0 1.03 0.11 1.04 0.14 1.03 0.16 1.03 0.18 0 0 1.03 0.21 0 0 1.02 0.24 1.01 0.26 1.01 0.29 0 0 1 0.31 1 0.33 0.99 0.36 0.98 0.39 0.98 0.41 0.97 0.43 0.96 0.46 0.95 0.49 0.94 0.51 0.93 0.53 0.92 0.56 0.91 0.59 0.9 0.61 0.88 0.64 0.87 0.66 0.86 0.68 0.84 0.71 0.83 0.74 0.82 0.76 0.03 0.02 0.02 0.02 0.02 0.02 0.63 0.61 0.02 0.02 0.03 0.02 0.02 0.02 0.02 0.03 0.78 0.8 0.76 0.82 0.73 0.83 0.71 0.85 0.68 0.86 0.66 0.87 0.64 0.89 0.61 0.9 0.58 0.91 0 0 0.02 0.03 0.02 0.03 0.02 0.02 0.02 0.03 0.04 0.06 0.02 0.03 0.38 0.63 0.02 0.03 0.02 0.03 0.02 0.02 0.02 0.03 0.02 0.03 0.02 0.03 0.02 0.03 0.45 0.78 0.02 0.03 0 0 0.02 0.03 0.02 0.03 0.02 0.03 0.43 0.8 0.02 0.03 0.03 0.06 0.01 0.03 0.02 0.03 0.33 0.65 0.02 0.03 0.01 0.03 0.02 0.03 0.02 0.03 0.01 0.03 0.02 0.03 0.02 0.03 0 0 0.46 0.96 0.43 0.97 0.41 0.98 0.38 0.98 0 0 0.02 0.04 0.02 0.05 0.32 0.88 0.04 0.11 0.01 0.03 0.01 0.03 0.01 0.03 0.01 0.03 0.01 0.03 0.01 0.03 0.01 0.03 0.01 0.03 0.01 0.03 0.01 0.03 0.01 0.03 0.01 0.03 0.01 0.03 0.01 0.03 0.01 0.03 0.01 0.03 0.01 0.03 0.01 0.03 0.01 0.03 0.01 0.03 0.01 0.03 0.01 0.03 0.01 0.03 0.01 0.03 0.01 0.03 0.01 0.03 0.01 0.03 0.01 0.03 0.01 0.03 0.01 0.02 0 0.01 0.01 0.03 0.01 0.03 0.01 0.03 0.01 0.03 0.01 0.03 0.01 0.03 0.01 0.03 0.01 0.03 0.01 0.03 0.01 0.03 0.01 0.03 0.01 0.03 0.04 0.12 0.01 0.03 0.01 0.03 0.01 0.03 0.01 0.03 0.01 0.03 0.01 0.03 0.01 0.03 0.02 0.06 0.01 0.03 0.01 0.03 0.01 0.03 0.01 0.03 0.01 0.03 0.01 0.03 0.02 0.04 0 0 0.03 0.11 0.03 0.11 0.01 0.03 0.01 0.03 0 0.02 0.01 0.03 0.01 0.03 0.01 0.06 0.01 0.03 0.01 0.03 0.01 0.05 0.01 0.03 0.02 0.06 0.01 0.03 0.02 0.06 0.01 0.02 0.02 0.06 0.01 0.03 0 0.03 0.01 0.03 0.01 0.03 0 0.03 0.01 0.02 0.01 0.03 0.01 0.03 0 0.02 0 0.01 0.01 0.03 0 0.03 0.01 0.03 0.01 0.02 0.01 0.03 0.01 0.03 0.01 0.03 0 0.02 0.11 0.42 0.01 0.03 0.02 0.06 0 0.02 0.01 0.03 0.01 0.03 0 0.03 0.01 0.03 0.01 0.03 0.01 0.03 0 0.03 0.01 0.03 0.26 1.11 0.02 0.11c0.13,0.64 0.26,1.27 0.36,1.91l0.01 0.03 0 0.03 0 0.03 0.01 0.03 0 0.03 0 0.03 0 0.03 0.01 0.06 0 0.03 0.01 0.03 0 0.03 0.01 0.06 0 0.03 0.03 0.19 0 0.03 0.01 0.06 0 0.03 0 0.03 0 0.03 0 0.03 0 0.03 0 0.03 0.01 0.03 0 0.02 0 0.02 0 0.03 0 0.03 0 0.03 0 0.03 0 0.03 0 0.03 0.07 0.54 0 0.03 0.01 0.03 0 0.03 0 0.03 0 0.03 0 0.03 0 0.03 0 0.03 0 0.03 0 0 0.01 0.08 0.01 0.08 0.01 0.08 0.08 0.73c0.04,0.38 0.07,0.76 0.1,1.14l0.01 0.08 0.05 0.89 0.04 0.98 0 0.08 0 0.08 0.01 0.82 0 0.08 0 0.08 0 0 -0.01 1.04 -0.04 1.04 -0.06 1.04 -0.09 1.04 0 0 -0.11 1.03 0 0 -0.13 1.03 -0.16 1.03 -0.18 1.03 -0.21 1.03 -0.24 1.02 -0.26 1.01 -0.29 1.01 -0.31 1 -0.34 1 0 0 -0.36 0.99 0 0 -0.38 0.99 -0.41 0.97 0 0 -0.43 0.96 -0.46 0.96 -0.48 0.95 -0.51 0.94 -0.02 0.03 -0.02 0.03 -0.02 0.03 -0.02 0.03 -0.02 0.03 -0.1 0.17 -0.35 0.61 -0.02 0.03 -0.02 0.03 -0.02 0.03 -0.45 0.75 -0.02 0.03 -0.02 0.03 -0.02 0.03 -0.58 0.91 -0.02 0.03 -0.02 0.03 -0.51 0.76 -0.02 0.03 -0.02 0.03 -0.02 0.03 -0.64 0.88 -0.66 0.87 -0.68 0.86 -0.71 0.84 -0.73 0.83 -0.76 0.82 -0.78 0.8 -0.8 0.78 -0.82 0.76 -0.83 0.74 -0.84 0.71 -0.86 0.68 -0.1 0.08 -0.77 0.58 -0.78 0.55 -0.03 0.02 -0.02 0.02 -0.03 0.02 -0.03 0.02 -0.9 0.61 -0.91 0.59 -0.92 0.56 -0.93 0.53 -0.94 0.51 -0.95 0.48 -0.96 0.46 -0.97 0.44 -0.97 0.41 -0.99 0.38 -0.05 0.02 -0.04 0.02 -0.04 0.02 -0.74 0.27 -0.05 0.02 -0.05 0.02 -0.04 0.01 -0.05 0.02 -0.03 0.01 -0.02 0.01 -0.03 0.01 -0.03 0.01 -0.03 0.01 -0.02 0.01 -0.03 0.01 -0.03 0.01 -0.02 0.01 -0.03 0.01 -0.03 0.01 -0.02 0.01 -0.03 0.01 -0.03 0.01 -0.02 0.01 -0.03 0.01 -0.03 0.01 -0.03 0.01 -0.02 0.01 -0.03 0.01 -0.03 0.01 -0.02 0.01 -0.03 0.01 -0.03 0.01 -0.03 0.01 -0.02 0.01 -0.03 0.01 -0.03 0.01 -0.02 0.01 -0.03 0.01 -0.03 0.01 -0.11 0.04 -0.03 0.01 -0.02 0.01 -0.03 0.01 -0.03 0.01 -0.03 0.01 -0.02 0.01 -0.03 0.01 -0.03 0.01 -0.03 0.01 -0.02 0.01 -0.03 0.01 -0.03 0.01 -0.03 0.01 -0.02 0.01 -0.03 0.01 -0.03 0.01 -0.02 0.01 -0.03 0.01 -0.03 0.01 -0.03 0.01 -0.03 0.01 -0.03 0.01 -0.03 0.01 -0.02 0.01 -0.03 0.01 -0.03 0.01 -0.03 0.01 -0.02 0.01 -0.03 0.01 -0.05 0.02 -0.05 0.02 -0.05 0.01 -0.04 0.02 -1.01 0.28 -1.01 0.26 -1.02 0.24 -0.03 0.01 -0.03 0.01 -0.03 0 -0.03 0.01 -0.03 0.01 -0.03 0 -0.55 0.11 -0.03 0.01 -0.03 0 -0.03 0.01 -0.03 0 -0.03 0.01 -0.03 0.01 -0.03 0 -0.03 0.01 -0.03 0 -0.03 0.01 -0.04 0.01 -0.03 0 -0.1 0.02 -0.03 0.01 -0.51 0.09 -0.04 0.01 -0.06 0.01 -0.03 0.01 -0.06 0.01 -0.04 0 -0.03 0 -0.03 0.01 -1.03 0.16 -1.04 0.14 -1.03 0.11 -1.04 0.08 0 0 -1.04 0.06 0 0 -1.04 0.04 -1.05 0.01 -1.04 -0.01 0 0 -1.04 -0.04 -1.04 -0.06 -1.04 -0.08 -1.04 -0.11 0 0 -1.03 -0.14 -0 0 -1.03 -0.16 0 0 -1.03 -0.18 -1.03 -0.21 -1.02 -0.24 -0 0 -1.01 -0.26 0 0 -1.01 -0.28 -1 -0.31 -0 0 -1 -0.33 0 0 -0.99 -0.36 -0 0 -0.98 -0.38 0 0 -0.98 -0.41 0 0 -0.97 -0.44 -0.96 -0.46 -0.95 -0.49 0 0 -0.94 -0.51 -0.93 -0.53 -0.92 -0.56 0 0 -0.91 -0.58 -0.9 -0.61 0 0 -0.88 -0.64 0 0 -0.87 -0.66 -0.86 -0.68 -0 0 -0.84 -0.71 -0.83 -0.73 0 0 -0.82 -0.76 -0 0 0 0 -0.8 -0.78zm1842.78 0.8l-0.02 0.02 -0.02 0.02 -0.03 0.02 -0.02 0.02 -0.02 0.02 -0.39 0.35 -0.02 0.02 -0.02 0.02 -0.03 0.02 -0.02 0.02 -0.02 0.02 -0.03 0.02 -0.02 0.02 -0.02 0.02 0.71 -0.66zm-1.62 1.47l-0.84 0.71 0.84 -0.71zm-1.73 1.41l-0.03 0.02 -0.05 0.04 -0.03 0.02 -0.03 0.02 -0.08 0.06 -0.03 0.02 -0.33 0.25 -0.03 0.02 -0.05 0.04 -0.03 0.02 -0.03 0.02 -0.03 0.02 -0.02 0.02 -0.03 0.02 -0.03 0.02 -0.03 0.02 -0.02 0.02 -0.03 0.02 -0.03 0.02 -0.03 0.02 -0.03 0.02 -0.03 0.02 -0.03 0.02 -0.05 0.04 -0.03 0.02 -0.06 0.04 -0.03 0.02 -0.06 0.04 -0.02 0.02 -0.06 0.04 -0.03 0.02 -0.08 0.06 -0.03 0.02 -0.05 0.04 -0.03 0.02 -0.03 0.02 -0.03 0.02 1.62 -1.19zm-2.63 1.88l-0.03 0.02 -0.03 0.02 -0.02 0.02 -0.03 0.02 -0.03 0.02 -0.03 0.02 -0.02 0.02 -0.03 0.02 -0.03 0.02 -0.2 0.13 -0.03 0.02 -0.08 0.06 -0.03 0.02 -0.03 0.02 -0.06 0.04 -0.03 0.02 -0.03 0.02 -0.03 0.02 -0.03 0.02 -0.03 0.02 -0.03 0.02 -0.03 0.02 -0.03 0.02 0 0 0.91 -0.58zm-0.94 0.6l-0.03 0.02 -0.03 0.02 -0.03 0.02 -0.03 0.02 -0.03 0.02 -0.03 0.02 -0.02 0.02 -0.03 0.02 -0.4 0.24 -0.03 0.02 -0.12 0.07 0.78 -0.47zm-4.67 2.53l-0.06 0.03 -0.06 0.03 -0.06 0.03 -0.06 0.03 -0.06 0.03 -0.3 0.14 -0.06 0.02 -0.12 0.06 -0.06 0.03 -0.06 0.02 -0.06 0.03 0 0 -0.06 0.02 -0.06 0.02 -0.06 0.03 -0.06 0.03 -0.06 0.02 -0.06 0.02 -0.06 0.03 -0.06 0.02 -0.06 0.02 -0.06 0.03 -0.06 0.02 -0.06 0.02 -0.06 0.03 -0.06 0.02 -0.06 0.02 -0.06 0.02 0 0 -0.06 0.02 -0.06 0.03 -0.06 0.02 -0.06 0.02 -0.06 0.02 -0.06 0.02 -0.06 0.02 -0.06 0.02 -0.06 0.02 -0.06 0.02 -0.06 0.02 -0.06 0.02 -0.06 0.02 -0.06 0.02 2.81 -1.18zm-2.93 1.23l0 0 -0.06 0.02 -0.06 0.02 -0.06 0.02 -0.06 0.02 -0.06 0.02 -0.06 0.02 -0.43 0.16 -0.06 0.02 0.87 -0.31zm-9.26 2.37l-0.03 0 -0.03 0 -0.03 0 -0.03 0 0.13 -0.02zm-0.16 0.02l-0.03 0 -0.49 0.06 -0.03 0 -0.03 0 -0.03 0 -0.03 0 -0.03 0 -0.03 0 -0.03 0 0 0 0.74 -0.1zm-0.81 0.1l-0.03 0 -0.03 0 -0.03 0 -0.03 0 -0.03 0 -0.04 0 -0.03 0 -0.03 0 -0.42 0.04 -0.03 0 -0.13 0.02 0.84 -0.09zm4.31 -85.52c0.27,0.06 0.53,0.12 0.8,0.18l-0.8 -0.18zm-900.55 454.93l-0.05 0 -0.05 0 -0.05 0 -0.89 -0.01 -0.05 0 -0.02 -0 -0.04 0 -0.05 0 -0.94 -0.04 -0.05 -0 -0.03 -0 -0.02 0 -0.88 -0.05 -0.05 -0 -0.05 -0 -0.05 -0 -0.05 -0 0 0c-0.74,-0.06 -1.47,-0.13 -2.19,-0.22l0 0 -0.05 -0.01 -0.05 -0.01 -0.05 -0 -0.05 -0.01 -0.05 -0.01 -0.05 -0 -0.05 -0.01 -0.51 -0.07 -0.05 -0.01 -0.05 -0.01 -0.05 -0 -0.05 -0.01 -0.02 -0 -0.04 -0 -0.05 -0.01 -0.05 -0.01 -0.2 -0.03 -0.05 -0.01 -0.45 -0.08 -0.05 -0.01 -0.05 -0.01 -0.05 -0.01 -0.05 -0.01 -0.04 -0 -0.02 -0 -0.05 -0.01 -0.05 -0.01 -0.05 -0.01 -0.05 -0.01 -0.05 -0.01 -0.6 -0.11 -0.05 -0.01 -0.05 -0.01 -0.05 -0.01 -0.05 -0.01 0 -0 -1.06 -0.23 0 -0 -1.05 -0.25 0 -0 -1.04 -0.28 0 -0 -0.99 -0.29 -0.03 -0.01 0 0 -0.03 -0.01 -0.03 -0.01 -0.95 -0.31 0 0 -1 -0.35 0 0 -0.99 -0.37 0 -0 -0.98 -0.4 0 -0 -0.97 -0.42 0 -0 -0.95 -0.44 0 -0 -0.94 -0.47 0 0 -0.03 -0.02 -0.03 -0.02 -0.02 -0.02 -0.03 -0.01 -0.03 -0.02 -0.03 -0.02 -0.02 -0.01 -0.03 -0.02 -0.03 -0.02 -0.03 -0.02 -0.03 -0.02 -0.03 -0.01 -0.47 -0.25 -0.02 -0.01 -0.03 -0.02 -0.03 -0.02 -0.03 -0.02 0 0 -0.92 -0.51 0 -0 -0.9 -0.53 0 0 -0.89 -0.55 0 0 -0.88 -0.57 0 0 -0.86 -0.6 0 -0 -0.84 -0.61 0 0 -0.83 -0.64 0 0 -0.81 -0.66 0 0 -0.8 -0.67 0 -0 -0.78 -0.69 0 -0 -0.76 -0.71 0 0 -0.74 -0.73 0 0 -0.73 -0.74 0 -0 -0.71 -0.76 0 0 -0.69 -0.78 0 0 -0.67 -0.8 0 0 -0.66 -0.81 0 -0 -0.64 -0.82 -0.62 -0.84 0 0 -0.6 -0.86 0 -0 -0.57 -0.87 0 0 -0.55 -0.89 0 0 -0.53 -0.9 0 -0 -0.51 -0.91 0 0 -0.49 -0.93 0 -0 -0.47 -0.94 0 0 -0.45 -0.95 0 -0 -0.42 -0.96 -0.4 -0.98 0 0 -0.37 -0.99 0 -0 -0.35 -1 -0.33 -1.01 0 -0 -0.31 -1.02 0 -0 -0.28 -1.03 -0.25 -1.05 -0.23 -1.06 -0.21 -1.06 0 -0 -0.18 -1.07 -0 -0.03 -0.01 -0.03 -0 -0.04 -0.01 -0.06 -0 -0.04 -0.11 -0.78 -0 -0.03 -0 -0.03 -0 -0.04 -0.12 -1.09 0 0 -0.1 -1.1 -0.07 -1.11 -0.04 -1.11 -0.02 -1.12 0.02 -1.12 0.04 -1.11 0.07 -1.11 0.1 -1.1 0.12 -1.09 0.15 -1.08 0.18 -1.07 0 -0 0.21 -1.06 0.23 -1.06 0.25 -1.05 0.28 -1.03 0.31 -1.03 0 -0 0.33 -1.01 0.35 -1 0 0 0.37 -0.99 0 0 0.4 -0.98 0.42 -0.96 0.45 -0.96 0.47 -0.94 0.49 -0.93 0 0 0.51 -0.92 0.53 -0.9 0.55 -0.89 0.57 -0.87 0 -0 0.6 -0.86 0 0 0.62 -0.84 0.64 -0.83 0.66 -0.81 0.67 -0.8 0.69 -0.78 0.71 -0.76 0.73 -0.74 0.74 -0.73 0.76 -0.71 0.78 -0.69 0.8 -0.67 0.81 -0.66 0 0 0.83 -0.64 0 0 0.84 -0.62 0 0 0.86 -0.6 0.87 -0.57 0 0 0.89 -0.55 0.9 -0.53 0 0 0.92 -0.51 0.93 -0.49 0.94 -0.47 0.95 -0.45 0.97 -0.42 0 0 0.98 -0.4 0.99 -0.37 1 -0.35 0 0 1.01 -0.33 12.91 84.9zm43.43 -43.43l0 0 0 0.02 0 0.02 0 0.02 0 0.02 0 0.02 0 0.02 0 0.02 0 0.02 0 -0.14zm-43.41 43.42l-0.02 0 -0 0 0.02 -0zm-922.63 -382.65l-0.02 -0.02 -0.02 -0.03 -0.02 -0.02 -0.03 -0.02 -0.02 -0.03 -0.35 -0.38 -0.02 -0.02 -0.02 -0.03 -0.02 -0.02 -0.02 -0.02 -0.02 -0.03 -0.02 -0.02 -0.02 -0.02 -0.02 -0.03 0.66 0.72zm-2.86 -3.33l-0.09 -0.12 -0.03 -0.04 -0.34 -0.45 -0.03 -0.04 -0.03 -0.04 -0.03 -0.04 -0.03 -0.04 -0.03 -0.04 -0.03 -0.04 -0.01 -0.01 -0.02 -0.03 0.68 0.9zm-0.7 -0.94l-0.03 -0.04 -0.03 -0.04 -0.03 -0.04 -0.03 -0.04 -0.03 -0.04 -0.03 -0.04 -0.03 -0.04 -0.03 -0.04 -0.03 -0.04 -0.03 -0.04 -0.03 -0.04 -0.03 -0.04 -0.03 -0.04 -0.03 -0.04 -0.03 -0.04 0.45 0.62zm-0.68 -0.96l-0.03 -0.04 -0.03 -0.04 -0.03 -0.04 -0.03 -0.04 -0.03 -0.04 -0.03 -0.04 -0.03 -0.04 -0.02 -0.04 -0.03 -0.04 -0.03 -0.04 -0.03 -0.04 -0.03 -0.04 -0.03 -0.04 -0.03 -0.04 -0.03 -0.04 0.43 0.63zm-0.51 -0.76l0 0 -0.02 -0.03 -0.02 -0.03 -0.02 -0.03 -0.02 -0.03 -0.02 -0.03 -0.02 -0.03 -0.02 -0.03 -0.02 -0.03 -0.02 -0.03 -0.13 -0.2 -0.02 -0.03 -0.04 -0.06 -0.02 -0.03 -0.02 -0.03 -0.02 -0.03 -0.04 -0.06 -0.02 -0.03 -0.02 -0.03 -0.02 -0.03 -0.02 -0.03 -0.02 -0.03 -0.02 -0.02 -0.04 -0.06 0 -0 0.59 0.91zm-0.64 -0.99l-0.02 -0.03 -0.02 -0.03 -0.02 -0.03 -0.02 -0.03 -0.02 -0.03 -0.02 -0.03 -0.02 -0.03 -0.02 -0.03 -0.02 -0.03 -0.02 -0.03 -0.02 -0.03 -0.02 -0.03 -0.02 -0.03 -0.02 -0.03 -0.02 -0.03 -0.02 -0.03 -0.02 -0.02 -0.02 -0.03 -0.02 -0.03 -0.02 -0.03 -0.02 -0.03 -0.02 -0.03 -0.02 -0.03 -0.02 -0.03 -0.02 -0.03 0.43 0.72zm-2.49 -4.62l-0 0 -0.03 -0.06 -0.03 -0.06 -0.02 -0.06 -0.03 -0.06 -0.03 -0.06 -0.14 -0.3 -0.03 -0.06 -0.05 -0.12 -0.03 -0.06 -0.02 -0.06 -0.03 -0.06 0 -0 -0.03 -0.06 -0.02 -0.06 -0.03 -0.06 -0.02 -0.06 -0.02 -0.06 -0.03 -0.06 -0.02 -0.06 -0.02 -0.06 -0.03 -0.06 -0.02 -0.06 -0.02 -0.06 -0.03 -0.06 -0.02 -0.06 -0.02 -0.06 -0.03 -0.06 -0.02 -0.06 0 0 -0.02 -0.06 -0.02 -0.06 -0.02 -0.06 -0.02 -0.06 -0.02 -0.06 -0.02 -0.06 -0.02 -0.06 -0.02 -0.06 -0.02 -0.06 -0.02 -0.06 -0.02 -0.06 -0.02 -0.06 -0.02 -0.06 -0.02 -0.06 1.19 2.8zm-1.23 -2.93l-0 0 -0.02 -0.06 -0.02 -0.06 -0.02 -0.06 -0.02 -0.06 -0.02 -0.06 -0.02 -0.06 -0.16 -0.43 -0.02 -0.06 0.32 0.86zm-0.7 -1.99l-0.03 -0.08 -0.02 -0.08 -0.02 -0.08 -0.02 -0.08 -0.02 -0.08 -0.02 -0.08 -0.02 -0.08 -0.03 -0.08 -0.02 -0.08 -0.02 -0.08 -0.02 -0.08 0.27 0.86zm-0.34 -1.1l-0.02 -0.08 -0.02 -0.08 -0.02 -0.08 -0.02 -0.08 -0.02 -0.08 -0.02 -0.08 -0.02 -0.08 -0.02 -0.08 -0.02 -0.08 -0.02 -0.08 -0.04 -0.12 -0.01 -0.04 -0.02 -0.08 -0.02 -0.08 -0.02 -0.08 -0.02 -0.08 -0.02 -0.08 -0.02 -0.08 -0.02 -0.08 -0.02 -0.08 -0.02 -0.08 -0.02 -0.08 -0.02 -0.08 0.49 1.82zm-0.51 -1.9l-0.01 -0.03 -0.01 -0.05 -0.02 -0.08 -0.02 -0.08 -0.02 -0.08 -0.04 -0.16 -0.02 -0.08 -0.04 -0.16 -0.02 -0.08 -0.02 -0.08 -0.02 -0.08 -0.02 -0.08 -0 -0.02 -0.02 -0.06 -0.02 -0.08 -0.02 -0.08 -0.02 -0.08 -0.12 -0.56 -0.02 -0.08 -0.02 -0.08 0 -0 -0.01 -0.06 -0.01 -0.06 -0.01 -0.06 -0.01 -0.06 -0.09 -0.51 -0.01 -0.06 -0.01 -0.06 -0.02 -0.07 -0.01 -0.06 0 -0 -0.01 -0.06 -0.01 -0.06 -0.01 -0.06 -0.01 -0.06 -0.02 -0.13 -0.01 -0.06 -0.01 -0.06 -0.02 -0.13 -0.01 -0.06 -0.01 -0.06 -0.01 -0.06 -0.01 -0.06 0.78 4.01zm-0.8 -4.14l0 0 -0.01 -0.06 0.01 0.06zm-0.04 -0.33l-0.01 -0.06 -0.01 -0.06 -0.01 -0.07 -0.01 -0.06 -0.01 -0.06 -0.01 -0.06 0.05 0.39zm-0.14 -1.1l-0.01 -0.06 -0 -0.07 0.01 0.13zm-0.02 -0.19l-0.01 -0.07 -0.01 -0.06 -0 -0.06 0.02 0.2zm-0.05 -0.49l-0 -0.04 0 -0.03 -0 -0.03 -0 -0.03 -0.06 -0.65 0 -0.03 -0 -0.04 -0 -0.06 -0 -0.04 0 -0.03 -0 -0.03 0 -0.03 -0 -0.03 0 -0.03 -0 -0.03 -0 -0.03 0 -0.03 -0 -0.03 0 -0.03 -0 -0.04 0 -0.03 -0.03 -0.55 0.14 1.89zm-0.16 -2.31l0 -0.03 -0.01 -0.2 0 -0.03 0 -0.03 -0 -0.04 0 -0.03 -0 -0.03 0 -0.03 0 -0.03 0 -0.03 -0 -0.03 0 -0.03 0 -0.03 0 -0.03 -0 -0.04 0 -0.03 0 -0.03 0.02 0.72zm-0.04 -1.79l0 -0.03 0 0.03zm0.01 -1.07l0.04 -1.04 -0.04 1.04zm0.1 -2.08l0 -0 -0 0zm1.68 -9.24l0.31 -1 -0.31 1zm41.64 -31.06l0 0 1.04 0.01 -1.04 -0.01zm26.55 77.8l-0.03 0.02 -0.08 0.06 0.1 -0.08zm1038.96 -2217.39c23.77,3.21 40.43,25.08 37.23,48.85 -3.21,23.77 -25.08,40.43 -48.85,37.23 -23.77,-3.21 -40.44,-25.08 -37.23,-48.85 3.21,-23.77 25.08,-40.43 48.85,-37.23zm163 32.7c23.17,6.21 36.92,30.02 30.7,53.18 -6.2,23.17 -30.02,36.92 -53.18,30.71 -23.17,-6.21 -36.91,-30.02 -30.71,-53.19 6.21,-23.16 30.02,-36.91 53.19,-30.7zm165.43 56.46c22.13,9.25 32.57,34.69 23.32,56.81 -9.25,22.12 -34.69,32.57 -56.81,23.32 -22.13,-9.25 -32.57,-34.69 -23.32,-56.81 9.25,-22.13 34.69,-32.57 56.81,-23.32zm148.98 73.77c20.77,11.99 27.89,38.55 15.9,59.32 -11.99,20.77 -38.55,27.88 -59.32,15.89 -20.77,-11.99 -27.89,-38.55 -15.9,-59.32 11.99,-20.77 38.55,-27.89 59.32,-15.9zm145.18 97.35c18.98,14.66 22.48,41.94 7.82,60.92 -14.66,18.98 -41.93,22.48 -60.91,7.82 -18.98,-14.66 -22.48,-41.93 -7.82,-60.92 14.66,-18.98 41.94,-22.48 60.92,-7.82zm331.98 379.81c11.99,20.77 4.88,47.33 -15.89,59.32 -20.77,11.99 -47.33,4.87 -59.32,-15.9 -11.99,-20.77 -4.88,-47.33 15.89,-59.32 20.77,-11.99 47.33,-4.88 59.32,15.89zm77.05 156.9c9.11,22.19 -1.5,47.56 -23.68,56.66 -22.19,9.1 -47.55,-1.5 -56.66,-23.69 -9.11,-22.19 1.5,-47.55 23.69,-56.66 22.19,-9.11 47.55,1.5 56.66,23.69zm53.18 157.51c6.21,23.17 -7.54,46.98 -30.7,53.19 -23.16,6.2 -46.98,-7.54 -53.18,-30.71 -6.21,-23.17 7.54,-46.98 30.7,-53.19 23.17,-6.21 46.98,7.54 53.18,30.71zm33.82 171.5c3.05,23.79 -13.76,45.55 -37.54,48.6 -23.79,3.05 -45.55,-13.76 -48.6,-37.55 -3.05,-23.79 13.76,-45.54 37.54,-48.6 23.79,-3.05 45.55,13.76 48.6,37.55zm-256.18 -624.29c14.53,19.08 10.86,46.32 -8.21,60.86 -19.08,14.54 -46.33,10.86 -60.86,-8.21 -14.54,-19.08 -10.86,-46.33 8.21,-60.86 19.08,-14.54 46.32,-10.86 60.86,8.21zm255.07 964.6c-3.21,23.77 -25.08,40.43 -48.84,37.22 -23.77,-3.21 -40.44,-25.08 -37.23,-48.85 3.21,-23.77 25.08,-40.43 48.85,-37.23 23.77,3.21 40.44,25.08 37.23,48.85zm-32.7 163c-6.21,23.16 -30.02,36.91 -53.19,30.7 -23.17,-6.21 -36.91,-30.02 -30.7,-53.19 6.2,-23.16 30.02,-36.91 53.18,-30.7 23.17,6.21 36.92,30.02 30.71,53.19zm-56.46 165.43c-9.25,22.13 -34.69,32.57 -56.82,23.32 -22.12,-9.25 -32.56,-34.69 -23.32,-56.81 9.25,-22.13 34.69,-32.57 56.81,-23.32 22.13,9.25 32.57,34.69 23.32,56.81zm-73.77 148.98c-11.99,20.77 -38.55,27.89 -59.32,15.9 -20.77,-11.99 -27.89,-38.55 -15.89,-59.32 11.99,-20.77 38.55,-27.89 59.32,-15.9 20.77,11.99 27.89,38.55 15.9,59.32zm-97.35 145.19c-14.66,18.98 -41.94,22.48 -60.92,7.82 -18.98,-14.66 -22.48,-41.93 -7.82,-60.92 14.66,-18.98 41.93,-22.47 60.92,-7.82 18.98,14.66 22.48,41.94 7.82,60.92zm-379.81 331.98c-20.77,11.99 -47.33,4.87 -59.32,-15.89 -11.99,-20.77 -4.88,-47.33 15.89,-59.32 20.77,-11.99 47.33,-4.88 59.32,15.89 11.99,20.77 4.87,47.33 -15.9,59.32zm-156.9 77.05c-22.19,9.11 -47.55,-1.5 -56.66,-23.68 -9.1,-22.19 1.5,-47.56 23.69,-56.67 22.19,-9.1 47.55,1.5 56.66,23.69 9.11,22.19 -1.5,47.56 -23.69,56.66zm-157.51 53.18c-23.17,6.21 -46.98,-7.54 -53.19,-30.7 -6.2,-23.17 7.54,-46.98 30.71,-53.19 23.17,-6.21 46.98,7.54 53.19,30.71 6.21,23.16 -7.54,46.98 -30.71,53.18zm-171.5 33.82c-23.79,3.05 -45.55,-13.76 -48.6,-37.55 -3.05,-23.78 13.75,-45.55 37.54,-48.6 23.79,-3.05 45.55,13.76 48.6,37.55 3.06,23.79 -13.76,45.55 -37.54,48.6zm-503.31 -33.82c-23.17,-6.21 -36.92,-30.02 -30.71,-53.18 6.2,-23.16 30.02,-36.92 53.18,-30.71 23.17,6.2 36.91,30.02 30.71,53.19 -6.21,23.17 -30.02,36.91 -53.18,30.7zm353.32 -39.42l0.98 0.4 0 0 -0.98 -0.4zm27.15 45.95l-0.15 1.08 0.15 -1.08zm-545.91 -62.99c-22.13,-9.25 -32.57,-34.69 -23.32,-56.81 9.25,-22.12 34.69,-32.57 56.81,-23.32 22.13,9.25 32.57,34.69 23.32,56.82 -9.25,22.12 -34.69,32.56 -56.81,23.31zm-148.98 -73.77c-20.77,-11.99 -27.88,-38.55 -15.9,-59.32 11.99,-20.77 38.55,-27.89 59.32,-15.89 20.77,11.99 27.89,38.55 15.9,59.32 -11.99,20.77 -38.55,27.89 -59.32,15.89zm-145.18 -97.35c-18.98,-14.66 -22.47,-41.93 -7.82,-60.92 14.66,-18.97 41.93,-22.48 60.92,-7.82 18.98,14.66 22.48,41.93 7.82,60.92 -14.66,18.98 -41.94,22.47 -60.92,7.81zm-331.98 -379.81c-11.99,-20.77 -4.88,-47.33 15.89,-59.32 20.77,-11.99 47.33,-4.88 59.32,15.9 12,20.77 4.88,47.33 -15.89,59.32 -20.77,11.99 -47.33,4.87 -59.32,-15.9zm216.74 201.33l0.94 -0.51 -0.94 0.51zm-293.79 -358.23c-9.11,-22.19 1.5,-47.55 23.68,-56.66 22.19,-9.11 47.55,1.5 56.66,23.69 9.11,22.19 -1.5,47.55 -23.69,56.67 -22.19,9.1 -47.55,-1.51 -56.66,-23.69zm-53.18 -157.51c-6.21,-23.17 7.54,-46.98 30.7,-53.19 23.16,-6.21 46.98,7.54 53.18,30.7 6.21,23.17 -7.53,46.98 -30.7,53.19 -23.17,6.2 -46.98,-7.55 -53.18,-30.71zm-33.82 -171.5c-3.05,-23.79 13.76,-45.54 37.54,-48.6 23.78,-3.05 45.55,13.76 48.6,37.55 3.06,23.79 -13.75,45.55 -37.54,48.6 -23.79,3.05 -45.55,-13.76 -48.6,-37.55zm-10.6 -165.9c0,-23.99 19.44,-43.43 43.43,-43.43 23.98,0 43.43,19.44 43.43,43.43 0,23.98 -19.44,43.43 -43.42,43.43 -23.99,-0 -43.43,-19.45 -43.43,-43.43zm11.72 -174.41c3.21,-23.77 25.08,-40.43 48.84,-37.23 23.77,3.21 40.44,25.08 37.23,48.85 -3.2,23.77 -25.08,40.43 -48.85,37.23 -23.77,-3.21 -40.44,-25.08 -37.23,-48.85zm32.7 -163c6.21,-23.17 30.02,-36.91 53.19,-30.7 23.16,6.2 36.92,30.01 30.7,53.18 -6.2,23.16 -30.01,36.92 -53.18,30.71 -23.17,-6.21 -36.92,-30.02 -30.71,-53.19zm56.46 -165.43c9.26,-22.13 34.69,-32.57 56.82,-23.32 22.12,9.25 32.57,34.69 23.32,56.81 -9.25,22.13 -34.69,32.57 -56.82,23.32 -22.13,-9.26 -32.57,-34.7 -23.32,-56.82zm73.77 -148.98c12,-20.77 38.55,-27.89 59.32,-15.9 20.77,11.99 27.89,38.55 15.89,59.32 -11.99,20.77 -38.54,27.89 -59.32,15.9 -20.77,-11.99 -27.89,-38.56 -15.9,-59.32zm97.35 -145.18c14.67,-18.98 41.94,-22.48 60.92,-7.82 18.97,14.66 22.48,41.93 7.82,60.92 -14.65,18.98 -41.93,22.48 -60.92,7.82 -18.98,-14.67 -22.48,-41.94 -7.82,-60.92zm109.82 -124.81c16.96,-16.96 44.45,-16.96 61.41,-0 16.95,16.95 16.96,44.45 0,61.42 -16.95,16.96 -44.45,16.96 -61.41,0 -16.96,-16.96 -16.96,-44.46 0,-61.41zm131.61 -115.04c19.09,-14.54 46.33,-10.86 60.86,8.21 14.53,19.07 10.86,46.32 -8.21,60.86 -19.07,14.54 -46.32,10.86 -60.86,-8.21 -14.54,-19.08 -10.86,-46.32 8.21,-60.86zm138.38 -92.13c20.77,-11.99 47.33,-4.88 59.32,15.9 11.99,20.76 4.88,47.33 -15.89,59.32 -20.77,11.99 -47.33,4.88 -59.32,-15.89 -11.99,-20.77 -4.87,-47.33 15.9,-59.33zm156.9 -77.05c22.19,-9.1 47.55,1.5 56.66,23.68 9.1,22.19 -1.5,47.56 -23.69,56.67 -22.19,9.11 -47.56,-1.5 -56.67,-23.68 -9.1,-22.19 1.5,-47.56 23.69,-56.67zm157.51 -53.18c23.17,-6.2 46.98,7.54 53.19,30.7 6.2,23.16 -7.54,46.98 -30.71,53.19 -23.16,6.21 -46.98,-7.53 -53.19,-30.7 -6.21,-23.17 7.54,-46.98 30.71,-53.19zm171.5 -33.82c23.8,-3.05 45.55,13.76 48.6,37.55 3.05,23.78 -13.75,45.55 -37.54,48.6 -23.79,3.06 -45.55,-13.75 -48.6,-37.54 -3.05,-23.79 13.76,-45.55 37.55,-48.6zm956.11 2329.88c-19.08,14.53 -46.33,10.86 -60.86,-8.22 -14.54,-19.07 -10.86,-46.32 8.21,-60.86 19.07,-14.53 46.33,-10.86 60.86,8.22 14.54,19.07 10.86,46.32 -8.21,60.86zm-964.6 255.07c-23.77,-3.21 -40.43,-25.08 -37.23,-48.85 3.21,-23.77 25.08,-40.43 48.85,-37.23 23.77,3.21 40.44,25.08 37.23,48.85 -3.21,23.77 -25.08,40.43 -48.85,37.23zm-862.44 -501.72c-14.54,-19.07 -10.86,-46.32 8.21,-60.86 19.08,-14.54 46.33,-10.86 60.86,8.21 14.54,19.07 10.86,46.32 -8.21,60.86 -19.08,14.54 -46.32,10.86 -60.86,-8.21z"/>
   </g>
   <path class="fil5" d="M1627.75 871.94c39.31,3.65 76.75,13.73 111.25,29.2l125.49 -239.02c2.87,-9.08 11.36,-15.66 21.39,-15.66 12.38,0 22.43,10.04 22.43,22.43 0,3.84 -0.96,7.45 -2.66,10.61l0.35 0.18 -127.28 242.43c34.73,21.26 65.48,48.38 90.9,79.97l201.5 -150.22 0.05 0.04c3.53,-2.31 7.74,-3.65 12.27,-3.65 12.38,0 22.44,10.05 22.44,22.44 0,7.04 -3.24,13.3 -8.31,17.42l0.03 0.04 -202.06 150.65c21.1,34.38 36.49,72.65 44.8,113.49l219.65 -35.33c2,-0.57 4.12,-0.9 6.31,-0.9 12.39,0 22.43,10.05 22.43,22.45 0,11.09 -8.06,20.31 -18.64,22.1l0.04 0.23 -223.65 35.97c0.64,8.66 0.97,17.41 0.97,26.23 0,36.32 -5.49,71.35 -15.69,104.32l-450.91 -151.25c-2.44,-0.87 -4.91,-1.52 -7.39,-1.95 -2.44,-0.41 -5.07,-0.61 -7.87,-0.58l-3.42 0.06c-1.44,0.08 -2.62,0.21 -3.55,0.35l-0.21 0.11 -3.57 0.66c-0.86,0.19 -2.13,0.58 -3.76,1.12 -0.03,0 -93.73,30.46 -208.32,68.16 -0.41,-6.96 -0.64,-13.96 -0.64,-21.01 0,-8.79 0.33,-17.51 0.96,-26.14l-224.22 -36.07 0.02 -0.23c-10.58,-1.79 -18.63,-11.01 -18.63,-22.1 0,-12.4 10.04,-22.45 22.43,-22.45 2.19,0 4.31,0.32 6.31,0.9l220.22 35.42c8.29,-40.76 23.61,-78.96 44.64,-113.28l-202.47 -150.94 0.02 -0.04c-5.07,-4.12 -8.31,-10.39 -8.31,-17.42 0,-12.4 10.04,-22.44 22.43,-22.44 4.53,0 8.74,1.34 12.27,3.65l0.04 -0.04 201.88 150.49c25.36,-31.57 56.04,-58.68 90.68,-79.97l-127.42 -242.7 0.35 -0.18c-1.7,-3.15 -2.67,-6.77 -2.67,-10.61 0,-12.39 10.06,-22.43 22.44,-22.43 10.03,0 18.52,6.57 21.4,15.66l125.6 239.23c40.72,-18.34 85.54,-29.16 132.72,-30.74l0 -328.26 0.19 0c0.45,-11.98 10.32,-21.55 22.41,-21.55 12.39,0 22.43,10.05 22.43,22.43 0,0.76 -0.04,1.5 -0.11,2.25l0 326.45zm381.19 775.03l-0.25 0.24c-1.19,1.19 -2.45,2.3 -3.79,3.34l0 551.57 18.55 0 0 101.84 -0.25 0 -36.28 0 -1042.4 0 -36.53 0 -0.05 0 0.05 -0.12 0 -101.71 18.25 0 0 -551.57c-1.33,-1.03 -2.61,-2.15 -3.8,-3.34l-0.24 -0.24 -12.05 0c-1.93,-2.81 -3.59,-5.83 -4.92,-9.03 -2.4,-5.79 -3.73,-12.11 -3.73,-18.67l0 -72 -45.6 -63.68 0.01 -0.02 -0.16 -0.25 -0.02 0.02 -0.6 -0.8 0 -0.07 -0.03 -0.08 -0.07 -0.04 -0.77 -1.26 0.02 -0.01 -0.08 -0.12 -0.01 0 -0.34 -0.6 0.02 -0.02 -24.11 -43.89c-3.36,-6.12 -3.92,-13.03 -2.11,-19.25 1.81,-6.23 6,-11.77 12.11,-15.13l0.05 0c0.96,-0.54 1.86,-0.97 2.64,-1.28 0.66,-0.27 1.46,-0.54 2.37,-0.8l612.41 -205.42c1.36,-0.45 2.76,-0.78 4.19,-1.01l0.03 -0.03c1.25,-0.2 2.62,-0.28 4.07,-0.27 3.11,-0.04 6.15,0.44 9.06,1.53l612.61 205.49c6.65,2.22 11.75,6.91 14.63,12.7 2.13,4.28 3.05,9.19 2.48,14.14 3.31,1.66 -24.1,47.8 -27.59,54.19 -0.33,0.56 -0.72,1.16 -1.17,1.8l0 0.03 -45.9 64.1 0 72.01c0,6.57 -1.33,12.88 -3.74,18.67 -1.34,3.2 -2.98,6.23 -4.91,9.03l-12.07 0zm-108.15 8.1l-87.93 0 0 520.32 87.93 0 0 -520.32zm-192.04 0l-87.93 0 0 520.32 87.93 0 0 -520.32zm-192.04 0l-102.23 0 0 520.32 102.23 0 0 -520.32zm-206.35 0l-87.94 0 0 520.32 87.94 0 0 -520.32zm-192.05 0l-87.94 0 0 520.32 87.94 0 0 -520.32z"/>
  </g>
 </g>
</svg>
